<?xml version="1.0" standalone="no"?>
<!DOCTYPE svg PUBLIC "-//W3C//DTD SVG 20010904//EN"
 "http://www.w3.org/TR/2001/REC-SVG-20010904/DTD/svg10.dtd">
<svg version="1.0" xmlns="http://www.w3.org/2000/svg"
 width="500.000000pt" height="500.000000pt" viewBox="0 0 500.000000 500.000000"
 preserveAspectRatio="xMidYMid meet">

<g transform="translate(0.000000,500.000000) scale(0.100000,-0.100000)"
fill="#000000" stroke="none">
<path d="M2030 3770 c-240 -8 -283 -17 -398 -88 -77 -48 -107 -74 -165 -145
-57 -70 -90 -132 -114 -218 -17 -59 -18 -116 -18 -734 0 -625 1 -674 19 -730
54 -174 156 -296 308 -368 162 -78 158 -78 738 -84 559 -6 666 -1 792 42 38
13 94 39 125 57 75 45 183 161 221 237 58 117 61 144 65 836 l5 630 -24 93
c-57 227 -221 391 -459 459 -59 17 -735 25 -1095 13z m1029 -205 c126 -33 239
-122 294 -231 41 -82 47 -137 45 -407 -1 -139 -4 -211 -5 -162 -3 68 -7 93
-20 102 -8 7 -13 18 -11 25 4 10 -6 13 -36 13 -22 -1 -47 -4 -54 -8 -6 -5 -12
-4 -12 2 0 6 -5 11 -11 11 -6 0 -9 -7 -6 -15 4 -8 1 -17 -5 -21 -7 -4 -8 -3
-4 4 4 7 2 12 -5 12 -8 0 -8 4 1 15 7 9 21 13 31 10 30 -10 22 8 -15 33 -34
23 -60 22 -70 -5 -6 -14 -8 -14 -24 -1 -30 25 -89 48 -125 48 -34 0 -36 -2
-40 -37 -2 -21 -4 79 -5 223 l-2 260 -32 31 c-45 43 -72 47 -185 30 -54 -9
-114 -18 -133 -21 -19 -3 -73 -11 -120 -19 -96 -17 -120 -18 -120 -5 0 5 9 7
20 3 10 -3 32 1 47 9 15 8 22 15 15 16 -10 0 -8 9 7 36 12 19 19 39 16 44 -3
4 -36 7 -75 6 -52 -1 -73 -6 -82 -19 -11 -13 -20 -15 -50 -8 -20 5 -40 6 -44
2 -4 -3 -5 1 -1 10 5 15 -11 17 -147 18 l-152 2 -14 -25 c-7 -15 -18 -25 -24
-24 -6 1 -21 -3 -33 -10 -13 -7 -24 -8 -28 -2 -3 5 -12 7 -20 4 -8 -4 -12 -11
-9 -16 4 -6 1 -8 -7 -6 -8 3 -13 14 -12 24 2 15 0 15 -9 -4 -6 -12 -18 -21
-27 -20 -21 4 -85 -37 -111 -69 -11 -14 -23 -24 -26 -21 -6 7 79 83 126 112
34 21 104 50 145 59 11 3 265 5 565 6 443 1 555 -2 599 -14z m-770 -149 c-2
-2 -15 -9 -29 -15 -24 -11 -24 -11 -6 3 16 13 49 24 35 12z m561 -75 l0 -38
-92 -12 c-51 -7 -142 -21 -203 -31 -162 -27 -225 -34 -225 -23 0 5 6 10 13 10
6 0 21 4 31 9 15 6 18 4 12 -7 -5 -9 -3 -8 6 2 7 9 27 19 43 22 17 3 24 4 18
1 -21 -9 -15 -23 7 -17 11 3 17 10 13 17 -4 6 1 5 10 -3 23 -19 47 2 47 40 0
26 3 29 33 29 17 1 73 9 122 19 50 10 107 19 128 20 37 1 37 1 37 -38z m0
-170 c0 -4 -11 -6 -25 -3 -14 2 -25 6 -25 8 0 2 11 4 25 4 14 0 25 -4 25 -9z
m-77 -8 c-7 -2 -19 -2 -25 0 -7 3 -2 5 12 5 14 0 19 -2 13 -5z m74 -35 c-3 -8
-6 -5 -6 6 -1 11 2 17 5 13 3 -3 4 -12 1 -19z m-40 -83 c0 -10 -11 -15 -34
-15 -42 0 -42 7 0 19 17 5 32 10 33 10 0 1 1 -6 1 -14z m32 -149 c47 -49 1
-138 -63 -122 -64 16 -85 78 -41 121 31 32 74 33 104 1z m-645 -8 c23 -33 20
-65 -10 -95 -20 -20 -31 -24 -57 -19 -44 9 -67 34 -67 72 0 41 30 64 82 64 27
0 41 -6 52 -22z m753 -159 c-53 -74 -188 -104 -253 -54 -17 13 -14 13 18 0 73
-29 157 -13 209 41 37 39 47 43 26 13z m-956 -6 c13 -16 12 -17 -3 -4 -17 13
-22 21 -14 21 2 0 10 -8 17 -17z m299 3 c0 -2 -8 -10 -17 -17 -16 -13 -17 -12
-4 4 13 16 21 21 21 13z m-132 -73 c-10 -2 -26 -2 -35 0 -10 3 -2 5 17 5 19 0
27 -2 18 -5z m-404 -331 c-6 -153 -5 -182 9 -209 9 -17 27 -35 39 -39 13 -4
26 -12 30 -18 4 -6 7 -67 6 -136 -1 -69 -3 -111 -5 -94 -3 26 -9 33 -34 36
-16 3 -32 2 -35 -1 -11 -11 -90 -37 -102 -33 -7 2 -12 11 -12 20 -1 10 -19 29
-41 45 -26 18 -42 37 -46 57 -3 17 -9 30 -13 30 -8 0 -20 483 -13 510 3 12 23
14 114 12 l109 -3 -6 -177z m1644 -103 c-3 -192 -8 -284 -17 -306 -7 -18 -16
-31 -19 -30 -4 1 -8 -2 -9 -6 -1 -4 -26 -32 -57 -62 -59 -58 -120 -101 -159
-110 l-24 -6 -6 113 c-11 177 -9 258 6 262 6 3 24 7 38 10 46 10 53 46 45 241
l-7 174 98 3 c54 2 102 0 106 -3 5 -4 7 -130 5 -280z m-1318 97 c0 -168 2
-185 20 -209 11 -13 35 -28 54 -31 29 -6 34 -11 40 -44 8 -49 6 -305 -3 -272
-7 29 -14 31 -90 32 -36 0 -72 -7 -101 -21 l-45 -20 -7 52 c-5 39 -4 679 1
695 1 1 30 2 66 2 l65 0 0 -184z m320 0 c0 -170 1 -185 21 -210 25 -32 50 -33
84 -3 l26 22 -1 188 -1 188 68 -3 68 -3 -3 -155 c-2 -85 -8 -182 -13 -215 -5
-33 -12 -141 -16 -240 -4 -99 -9 -171 -11 -161 -3 14 -6 16 -12 6 -6 -9 -34
-12 -96 -11 -110 2 -124 4 -124 11 0 15 -59 -3 -62 -19 -2 -9 -9 81 -17 199
-7 118 -17 220 -22 227 -11 12 -29 200 -29 301 l0 62 70 0 70 0 0 -184z m600
-224 l0 -408 -23 -1 c-100 -5 -191 -3 -196 4 -3 5 -14 12 -24 16 -16 6 -17 22
-15 189 l3 183 34 2 c19 2 40 8 46 13 23 19 33 122 28 268 l-6 142 76 0 77 0
0 -408z m-1163 -324 c-3 -8 -6 -5 -6 6 -1 11 2 17 5 13 3 -3 4 -12 1 -19z
m127 -153 c3 -8 1 -15 -4 -15 -6 0 -10 7 -10 15 0 8 2 15 4 15 2 0 6 -7 10
-15z"/>
<path d="M1760 3510 c-9 -6 -10 -10 -3 -10 6 0 15 5 18 10 8 12 4 12 -15 0z"/>
</g>
</svg>
